<?xml version="1.0" encoding="UTF-8"?>
<svg xmlns="http://www.w3.org/2000/svg" xmlns:xlink="http://www.w3.org/1999/xlink" width="1920" height="1080" viewBox="0 0 1920 1080">
<defs>
<g>
<g id="glyph-0-0">
<path d="M 12.335938 0 L 7.214844 0 L 7.214844 -0.617188 C 7.667969 -0.644531 8.039062 -0.703125 8.339844 -0.789062 C 8.636719 -0.875 8.785156 -0.984375 8.785156 -1.109375 C 8.785156 -1.164062 8.78125 -1.226562 8.769531 -1.300781 C 8.757812 -1.378906 8.738281 -1.445312 8.714844 -1.5 L 7.695312 -4.261719 L 3.371094 -4.261719 C 3.210938 -3.855469 3.078125 -3.503906 2.976562 -3.203125 C 2.875 -2.902344 2.785156 -2.625 2.703125 -2.371094 C 2.628906 -2.121094 2.574219 -1.917969 2.546875 -1.761719 C 2.519531 -1.605469 2.503906 -1.480469 2.503906 -1.378906 C 2.503906 -1.148438 2.6875 -0.96875 3.050781 -0.84375 C 3.414062 -0.714844 3.824219 -0.640625 4.28125 -0.617188 L 4.28125 0 L -0.355469 0 L -0.355469 -0.617188 C -0.207031 -0.628906 -0.015625 -0.660156 0.207031 -0.714844 C 0.433594 -0.769531 0.621094 -0.84375 0.765625 -0.9375 C 0.996094 -1.09375 1.175781 -1.257812 1.300781 -1.429688 C 1.429688 -1.597656 1.554688 -1.835938 1.675781 -2.136719 C 2.292969 -3.679688 2.976562 -5.417969 3.722656 -7.34375 C 4.46875 -9.269531 5.136719 -10.988281 5.71875 -12.492188 L 6.414062 -12.492188 L 10.519531 -1.867188 C 10.605469 -1.640625 10.707031 -1.457031 10.816406 -1.320312 C 10.925781 -1.179688 11.078125 -1.042969 11.277344 -0.910156 C 11.410156 -0.832031 11.582031 -0.761719 11.796875 -0.707031 C 12.011719 -0.652344 12.191406 -0.621094 12.335938 -0.617188 L 12.335938 0 M 7.378906 -5.035156 L 5.511719 -9.816406 L 3.675781 -5.035156 Z "/>
</g>
<g id="glyph-0-1">
<path d="M 9.3125 -4.289062 C 9.3125 -3.003906 8.910156 -1.925781 8.097656 -1.050781 C 7.289062 -0.175781 6.347656 0.261719 5.277344 0.261719 C 4.808594 0.261719 4.347656 0.1875 3.894531 0.0429688 C 3.4375 -0.101562 3.011719 -0.296875 2.613281 -0.539062 L 1.96875 0.460938 L 1.433594 0.339844 C 1.460938 -0.0898438 1.480469 -0.605469 1.492188 -1.207031 C 1.503906 -1.808594 1.511719 -2.390625 1.511719 -2.953125 L 1.511719 -11.429688 C 1.511719 -11.628906 1.464844 -11.824219 1.375 -12.023438 C 1.285156 -12.21875 1.171875 -12.359375 1.03125 -12.449219 C 0.921875 -12.523438 0.738281 -12.578125 0.480469 -12.617188 C 0.222656 -12.65625 0.015625 -12.679688 -0.140625 -12.691406 L -0.140625 -13.246094 L 3.003906 -13.4375 L 3.125 -13.308594 L 3.125 -7.664062 L 3.1875 -7.648438 C 3.542969 -8.03125 3.9375 -8.316406 4.363281 -8.507812 C 4.789062 -8.699219 5.207031 -8.792969 5.617188 -8.792969 C 6.667969 -8.792969 7.550781 -8.375 8.253906 -7.542969 C 8.960938 -6.710938 9.3125 -5.625 9.3125 -4.289062 M 7.5 -4.226562 C 7.5 -4.65625 7.453125 -5.09375 7.359375 -5.539062 C 7.269531 -5.984375 7.125 -6.371094 6.925781 -6.703125 C 6.730469 -7.035156 6.472656 -7.308594 6.15625 -7.515625 C 5.835938 -7.726562 5.453125 -7.828125 5.007812 -7.828125 C 4.601562 -7.828125 4.25 -7.75 3.945312 -7.589844 C 3.640625 -7.433594 3.367188 -7.214844 3.125 -6.945312 L 3.125 -1.960938 C 3.160156 -1.824219 3.226562 -1.660156 3.328125 -1.476562 C 3.429688 -1.289062 3.566406 -1.113281 3.742188 -0.945312 C 3.914062 -0.785156 4.113281 -0.652344 4.332031 -0.550781 C 4.550781 -0.449219 4.820312 -0.398438 5.140625 -0.398438 C 5.84375 -0.398438 6.414062 -0.742188 6.847656 -1.421875 C 7.28125 -2.105469 7.5 -3.039062 7.5 -4.226562 Z "/>
</g>
<g id="glyph-0-2">
<path d="M 6.277344 -4.191406 C 6.511719 -3.984375 6.695312 -3.742188 6.824219 -3.472656 C 6.949219 -3.199219 7.015625 -2.867188 7.015625 -2.472656 C 7.015625 -1.679688 6.71875 -1.03125 6.125 -0.53125 C 5.53125 -0.0273438 4.761719 0.226562 3.820312 0.226562 C 3.320312 0.226562 2.863281 0.136719 2.445312 -0.0429688 C 2.023438 -0.222656 1.722656 -0.386719 1.546875 -0.539062 L 1.371094 0.0273438 L 0.71875 0.0273438 L 0.632812 -2.953125 L 1.234375 -2.953125 C 1.277344 -2.726562 1.378906 -2.460938 1.527344 -2.160156 C 1.679688 -1.855469 1.859375 -1.582031 2.074219 -1.339844 C 2.300781 -1.085938 2.570312 -0.871094 2.886719 -0.695312 C 3.203125 -0.519531 3.554688 -0.433594 3.949219 -0.433594 C 4.503906 -0.433594 4.933594 -0.5625 5.234375 -0.8125 C 5.535156 -1.066406 5.6875 -1.429688 5.6875 -1.902344 C 5.6875 -2.144531 5.636719 -2.355469 5.542969 -2.53125 C 5.445312 -2.707031 5.304688 -2.863281 5.121094 -2.996094 C 4.929688 -3.128906 4.695312 -3.246094 4.417969 -3.355469 C 4.140625 -3.460938 3.832031 -3.566406 3.488281 -3.671875 C 3.21875 -3.753906 2.914062 -3.863281 2.582031 -4.007812 C 2.25 -4.148438 1.964844 -4.3125 1.726562 -4.503906 C 1.472656 -4.707031 1.265625 -4.957031 1.101562 -5.25 C 0.941406 -5.546875 0.859375 -5.894531 0.859375 -6.292969 C 0.859375 -6.992188 1.121094 -7.585938 1.640625 -8.074219 C 2.160156 -8.558594 2.859375 -8.800781 3.734375 -8.800781 C 4.066406 -8.800781 4.410156 -8.757812 4.761719 -8.671875 C 5.109375 -8.585938 5.394531 -8.480469 5.617188 -8.359375 L 5.816406 -8.8125 L 6.441406 -8.8125 L 6.570312 -6.058594 L 5.972656 -6.058594 C 5.851562 -6.675781 5.589844 -7.175781 5.1875 -7.5625 C 4.785156 -7.949219 4.292969 -8.140625 3.714844 -8.140625 C 3.242188 -8.140625 2.867188 -8.023438 2.59375 -7.785156 C 2.324219 -7.542969 2.1875 -7.257812 2.1875 -6.917969 C 2.1875 -6.65625 2.230469 -6.441406 2.320312 -6.265625 C 2.410156 -6.09375 2.546875 -5.945312 2.726562 -5.824219 C 2.898438 -5.707031 3.117188 -5.601562 3.382812 -5.5 C 3.644531 -5.398438 3.96875 -5.285156 4.359375 -5.15625 C 4.738281 -5.035156 5.101562 -4.894531 5.4375 -4.730469 C 5.777344 -4.570312 6.054688 -4.390625 6.277344 -4.191406 Z "/>
</g>
<g id="glyph-0-3">
<path d="M 5.910156 -0.375 C 5.535156 -0.21875 5.179688 -0.0859375 4.84375 0.0234375 C 4.507812 0.128906 4.097656 0.183594 3.609375 0.183594 C 2.894531 0.183594 2.386719 0 2.097656 -0.359375 C 1.804688 -0.722656 1.65625 -1.234375 1.65625 -1.890625 L 1.65625 -7.691406 L 0.113281 -7.691406 L 0.113281 -8.523438 L 1.691406 -8.523438 L 1.691406 -11.1875 L 3.273438 -11.1875 L 3.273438 -8.523438 L 5.730469 -8.523438 L 5.730469 -7.691406 L 3.289062 -7.691406 L 3.289062 -2.90625 C 3.289062 -2.550781 3.304688 -2.25 3.328125 -2.007812 C 3.355469 -1.769531 3.417969 -1.558594 3.515625 -1.378906 C 3.609375 -1.210938 3.746094 -1.085938 3.933594 -1 C 4.117188 -0.910156 4.367188 -0.867188 4.679688 -0.867188 C 4.824219 -0.867188 5.035156 -0.882812 5.316406 -0.90625 C 5.597656 -0.933594 5.796875 -0.964844 5.910156 -1.007812 Z "/>
</g>
<g id="glyph-0-4">
<path d="M 7.179688 -7.457031 C 7.179688 -7.160156 7.105469 -6.898438 6.960938 -6.671875 C 6.816406 -6.441406 6.59375 -6.328125 6.292969 -6.328125 C 5.96875 -6.328125 5.722656 -6.410156 5.550781 -6.578125 C 5.378906 -6.746094 5.296875 -6.933594 5.296875 -7.136719 C 5.296875 -7.261719 5.304688 -7.378906 5.324219 -7.484375 C 5.34375 -7.585938 5.363281 -7.691406 5.382812 -7.796875 C 5.109375 -7.796875 4.792969 -7.683594 4.425781 -7.464844 C 4.0625 -7.246094 3.753906 -6.933594 3.5 -6.527344 L 3.5 -1.546875 C 3.5 -1.34375 3.539062 -1.175781 3.617188 -1.050781 C 3.695312 -0.921875 3.816406 -0.828125 3.984375 -0.765625 C 4.128906 -0.707031 4.316406 -0.664062 4.542969 -0.632812 C 4.773438 -0.605469 4.972656 -0.585938 5.140625 -0.574219 L 5.140625 0 L 0.625 0 L 0.625 -0.574219 C 0.757812 -0.585938 0.894531 -0.597656 1.039062 -0.609375 C 1.179688 -0.621094 1.300781 -0.640625 1.40625 -0.675781 C 1.566406 -0.730469 1.6875 -0.820312 1.765625 -0.949219 C 1.84375 -1.082031 1.882812 -1.25 1.882812 -1.457031 L 1.882812 -6.738281 C 1.882812 -6.917969 1.839844 -7.09375 1.757812 -7.265625 C 1.675781 -7.441406 1.558594 -7.578125 1.40625 -7.683594 C 1.296875 -7.75 1.167969 -7.800781 1.015625 -7.835938 C 0.863281 -7.867188 0.703125 -7.886719 0.53125 -7.898438 L 0.53125 -8.472656 L 3.375 -8.664062 L 3.5 -8.542969 L 3.5 -7.335938 L 3.542969 -7.335938 C 3.898438 -7.804688 4.300781 -8.160156 4.738281 -8.402344 C 5.179688 -8.644531 5.582031 -8.765625 5.945312 -8.765625 C 6.3125 -8.765625 6.605469 -8.648438 6.835938 -8.410156 C 7.0625 -8.175781 7.179688 -7.855469 7.179688 -7.457031 Z "/>
</g>
<g id="glyph-0-5">
<path d="M 8.734375 -0.15625 C 8.460938 -0.0585938 8.222656 0.0234375 8.015625 0.0820312 C 7.8125 0.144531 7.578125 0.171875 7.316406 0.171875 C 6.867188 0.171875 6.507812 0.0664062 6.238281 -0.144531 C 5.96875 -0.355469 5.796875 -0.664062 5.71875 -1.066406 L 5.667969 -1.066406 C 5.292969 -0.652344 4.886719 -0.332031 4.457031 -0.113281 C 4.027344 0.105469 3.507812 0.21875 2.898438 0.21875 C 2.257812 0.21875 1.730469 0.0195312 1.316406 -0.375 C 0.902344 -0.765625 0.695312 -1.28125 0.695312 -1.917969 C 0.695312 -2.25 0.742188 -2.542969 0.832031 -2.804688 C 0.925781 -3.0625 1.066406 -3.296875 1.25 -3.507812 C 1.394531 -3.679688 1.585938 -3.835938 1.824219 -3.972656 C 2.058594 -4.105469 2.28125 -4.214844 2.492188 -4.296875 C 2.75 -4.394531 3.28125 -4.578125 4.074219 -4.84375 C 4.871094 -5.109375 5.40625 -5.316406 5.6875 -5.46875 L 5.6875 -6.328125 C 5.6875 -6.402344 5.667969 -6.546875 5.636719 -6.761719 C 5.605469 -6.976562 5.539062 -7.179688 5.433594 -7.371094 C 5.316406 -7.582031 5.15625 -7.769531 4.945312 -7.929688 C 4.730469 -8.089844 4.433594 -8.167969 4.046875 -8.167969 C 3.777344 -8.167969 3.53125 -8.125 3.304688 -8.035156 C 3.074219 -7.945312 2.914062 -7.851562 2.820312 -7.75 C 2.820312 -7.636719 2.847656 -7.464844 2.902344 -7.238281 C 2.957031 -7.015625 2.984375 -6.804688 2.984375 -6.613281 C 2.984375 -6.410156 2.894531 -6.226562 2.710938 -6.058594 C 2.53125 -5.890625 2.277344 -5.808594 1.953125 -5.808594 C 1.664062 -5.808594 1.449219 -5.910156 1.316406 -6.117188 C 1.179688 -6.320312 1.109375 -6.550781 1.109375 -6.804688 C 1.109375 -7.070312 1.207031 -7.328125 1.394531 -7.570312 C 1.582031 -7.8125 1.824219 -8.03125 2.125 -8.21875 C 2.386719 -8.382812 2.703125 -8.519531 3.074219 -8.632812 C 3.441406 -8.746094 3.804688 -8.800781 4.15625 -8.800781 C 4.644531 -8.800781 5.066406 -8.769531 5.429688 -8.703125 C 5.792969 -8.636719 6.121094 -8.492188 6.414062 -8.273438 C 6.710938 -8.058594 6.933594 -7.765625 7.085938 -7.398438 C 7.242188 -7.03125 7.316406 -6.558594 7.316406 -5.980469 C 7.316406 -5.152344 7.308594 -4.417969 7.292969 -3.78125 C 7.273438 -3.140625 7.265625 -2.441406 7.265625 -1.683594 C 7.265625 -1.457031 7.304688 -1.277344 7.382812 -1.144531 C 7.460938 -1.011719 7.582031 -0.898438 7.742188 -0.808594 C 7.828125 -0.753906 7.96875 -0.726562 8.15625 -0.71875 C 8.34375 -0.714844 8.535156 -0.710938 8.734375 -0.710938 L 8.734375 -0.15625 M 5.703125 -4.738281 C 5.210938 -4.59375 4.78125 -4.453125 4.410156 -4.3125 C 4.039062 -4.175781 3.695312 -4 3.375 -3.792969 C 3.085938 -3.59375 2.859375 -3.359375 2.691406 -3.089844 C 2.523438 -2.820312 2.4375 -2.5 2.4375 -2.128906 C 2.4375 -1.648438 2.566406 -1.292969 2.816406 -1.070312 C 3.070312 -0.84375 3.386719 -0.730469 3.777344 -0.730469 C 4.1875 -0.730469 4.546875 -0.828125 4.859375 -1.03125 C 5.171875 -1.230469 5.4375 -1.464844 5.652344 -1.738281 Z "/>
</g>
<g id="glyph-0-6">
<path d="M 4.582031 0.226562 C 3.34375 0.226562 2.375 -0.183594 1.675781 -1.007812 C 0.976562 -1.828125 0.625 -2.929688 0.625 -4.3125 C 0.625 -4.914062 0.71875 -5.480469 0.90625 -6.003906 C 1.09375 -6.527344 1.367188 -7.003906 1.726562 -7.429688 C 2.070312 -7.839844 2.496094 -8.171875 3.011719 -8.425781 C 3.527344 -8.675781 4.089844 -8.800781 4.695312 -8.800781 C 5.535156 -8.800781 6.21875 -8.601562 6.746094 -8.199219 C 7.269531 -7.796875 7.535156 -7.25 7.535156 -6.554688 C 7.535156 -6.265625 7.464844 -6.007812 7.328125 -5.785156 C 7.1875 -5.5625 6.957031 -5.453125 6.640625 -5.453125 C 6.300781 -5.453125 6.035156 -5.539062 5.847656 -5.710938 C 5.65625 -5.882812 5.5625 -6.078125 5.5625 -6.289062 C 5.5625 -6.550781 5.597656 -6.816406 5.667969 -7.089844 C 5.738281 -7.363281 5.777344 -7.566406 5.789062 -7.691406 C 5.6875 -7.871094 5.53125 -7.992188 5.328125 -8.050781 C 5.121094 -8.113281 4.902344 -8.140625 4.664062 -8.140625 C 4.386719 -8.140625 4.125 -8.082031 3.871094 -7.964844 C 3.621094 -7.84375 3.378906 -7.628906 3.140625 -7.308594 C 2.925781 -7.019531 2.753906 -6.628906 2.621094 -6.136719 C 2.488281 -5.644531 2.421875 -5.058594 2.421875 -4.375 C 2.421875 -3.296875 2.660156 -2.421875 3.136719 -1.742188 C 3.613281 -1.058594 4.238281 -0.71875 5.011719 -0.71875 C 5.574219 -0.71875 6.042969 -0.855469 6.421875 -1.128906 C 6.800781 -1.402344 7.152344 -1.8125 7.472656 -2.359375 L 8.03125 -1.996094 C 7.648438 -1.3125 7.144531 -0.773438 6.519531 -0.375 C 5.894531 0.0273438 5.25 0.226562 4.582031 0.226562 Z "/>
</g>
<g id="glyph-0-7">
</g>
<g id="glyph-0-8">
<path d="M 4.636719 0 L 0.460938 0 L 0.460938 -0.574219 C 0.59375 -0.585938 0.734375 -0.597656 0.886719 -0.613281 C 1.035156 -0.625 1.160156 -0.648438 1.257812 -0.675781 C 1.421875 -0.730469 1.542969 -0.820312 1.625 -0.949219 C 1.703125 -1.082031 1.746094 -1.25 1.746094 -1.457031 L 1.746094 -11.378906 C 1.746094 -11.585938 1.699219 -11.78125 1.609375 -11.964844 C 1.519531 -12.148438 1.402344 -12.292969 1.257812 -12.394531 C 1.15625 -12.464844 0.964844 -12.527344 0.6875 -12.585938 C 0.40625 -12.644531 0.183594 -12.679688 0.015625 -12.691406 L 0.015625 -13.246094 L 3.238281 -13.4375 L 3.359375 -13.308594 L 3.359375 -1.5625 C 3.359375 -1.359375 3.398438 -1.195312 3.472656 -1.0625 C 3.546875 -0.933594 3.667969 -0.832031 3.835938 -0.765625 C 3.964844 -0.707031 4.089844 -0.664062 4.214844 -0.632812 C 4.339844 -0.605469 4.480469 -0.585938 4.636719 -0.574219 Z "/>
</g>
<g id="glyph-0-9">
<path d="M 7.960938 -0.886719 C 8.191406 -0.664062 8.375 -0.417969 8.507812 -0.140625 C 8.640625 0.140625 8.707031 0.484375 8.707031 0.894531 C 8.707031 1.304688 8.617188 1.691406 8.4375 2.054688 C 8.257812 2.414062 7.984375 2.730469 7.621094 2.996094 C 7.234375 3.265625 6.769531 3.476562 6.234375 3.628906 C 5.695312 3.777344 5.027344 3.855469 4.234375 3.855469 C 2.941406 3.855469 1.96875 3.664062 1.328125 3.285156 C 0.6875 2.90625 0.363281 2.351562 0.363281 1.625 C 0.363281 1.03125 0.597656 0.566406 1.058594 0.226562 C 1.523438 -0.117188 2.113281 -0.300781 2.828125 -0.328125 L 2.828125 -0.453125 C 2.65625 -0.503906 2.476562 -0.570312 2.292969 -0.648438 C 2.105469 -0.726562 1.949219 -0.816406 1.8125 -0.921875 C 1.664062 -1.042969 1.542969 -1.183594 1.449219 -1.351562 C 1.355469 -1.515625 1.3125 -1.71875 1.3125 -1.960938 C 1.3125 -2.269531 1.417969 -2.550781 1.636719 -2.808594 C 1.851562 -3.066406 2.183594 -3.285156 2.621094 -3.472656 L 2.621094 -3.601562 C 2.066406 -3.863281 1.636719 -4.195312 1.328125 -4.605469 C 1.019531 -5.011719 0.867188 -5.484375 0.867188 -6.023438 C 0.867188 -6.835938 1.171875 -7.5 1.773438 -8.019531 C 2.378906 -8.542969 3.152344 -8.800781 4.097656 -8.800781 C 4.359375 -8.800781 4.617188 -8.777344 4.875 -8.722656 C 5.132812 -8.671875 5.394531 -8.605469 5.660156 -8.523438 L 8.644531 -8.523438 L 8.644531 -7.691406 L 6.632812 -7.691406 L 6.632812 -7.640625 C 6.847656 -7.390625 7.003906 -7.113281 7.109375 -6.8125 C 7.214844 -6.511719 7.265625 -6.21875 7.265625 -5.929688 C 7.265625 -5.175781 6.960938 -4.539062 6.351562 -4.019531 C 5.738281 -3.5 5.027344 -3.238281 4.21875 -3.238281 L 3.167969 -3.238281 C 3.035156 -3.191406 2.894531 -3.109375 2.75 -2.984375 C 2.605469 -2.863281 2.535156 -2.699219 2.535156 -2.492188 C 2.535156 -2.277344 2.59375 -2.113281 2.71875 -2 C 2.839844 -1.886719 2.984375 -1.8125 3.160156 -1.769531 C 3.328125 -1.722656 3.523438 -1.695312 3.746094 -1.683594 C 3.96875 -1.671875 4.199219 -1.664062 4.4375 -1.65625 C 4.691406 -1.652344 5.039062 -1.636719 5.480469 -1.605469 C 5.925781 -1.578125 6.238281 -1.558594 6.421875 -1.554688 C 6.691406 -1.542969 6.957031 -1.480469 7.226562 -1.363281 C 7.496094 -1.246094 7.738281 -1.089844 7.960938 -0.886719 M 5.617188 -5.964844 C 5.617188 -6.640625 5.480469 -7.179688 5.203125 -7.582031 C 4.929688 -7.984375 4.542969 -8.1875 4.046875 -8.1875 C 3.773438 -8.1875 3.539062 -8.128906 3.347656 -8.015625 C 3.152344 -7.902344 2.996094 -7.742188 2.875 -7.535156 C 2.757812 -7.34375 2.675781 -7.113281 2.625 -6.84375 C 2.578125 -6.574219 2.550781 -6.300781 2.550781 -6.015625 C 2.550781 -5.375 2.691406 -4.847656 2.972656 -4.445312 C 3.253906 -4.039062 3.617188 -3.835938 4.0625 -3.835938 C 4.558594 -3.835938 4.945312 -4.039062 5.210938 -4.441406 C 5.480469 -4.84375 5.617188 -5.351562 5.617188 -5.964844 M 7.28125 1.214844 C 7.28125 0.890625 7.207031 0.625 7.058594 0.417969 C 6.90625 0.207031 6.679688 0.0664062 6.371094 -0.0078125 C 6.210938 -0.03125 5.875 -0.0585938 5.375 -0.0859375 C 4.871094 -0.117188 4.285156 -0.128906 3.621094 -0.128906 C 2.996094 -0.0078125 2.550781 0.195312 2.289062 0.480469 C 2.023438 0.769531 1.890625 1.136719 1.890625 1.589844 C 1.890625 1.792969 1.9375 1.984375 2.023438 2.171875 C 2.109375 2.355469 2.261719 2.527344 2.472656 2.683594 C 2.675781 2.832031 2.949219 2.957031 3.289062 3.050781 C 3.632812 3.148438 4.046875 3.195312 4.539062 3.195312 C 5.390625 3.195312 6.058594 3.03125 6.550781 2.703125 C 7.039062 2.378906 7.28125 1.878906 7.28125 1.214844 Z "/>
</g>
<g id="glyph-0-10">
<path d="M 8.230469 -2.015625 C 7.871094 -1.332031 7.390625 -0.785156 6.789062 -0.382812 C 6.1875 0.0234375 5.496094 0.226562 4.714844 0.226562 C 4.023438 0.226562 3.421875 0.105469 2.902344 -0.140625 C 2.386719 -0.382812 1.957031 -0.710938 1.625 -1.128906 C 1.289062 -1.546875 1.039062 -2.03125 0.871094 -2.585938 C 0.707031 -3.140625 0.625 -3.730469 0.625 -4.347656 C 0.625 -4.90625 0.714844 -5.449219 0.890625 -5.984375 C 1.066406 -6.519531 1.324219 -7.003906 1.667969 -7.429688 C 1.996094 -7.839844 2.40625 -8.171875 2.894531 -8.425781 C 3.382812 -8.675781 3.933594 -8.800781 4.539062 -8.800781 C 5.164062 -8.800781 5.699219 -8.703125 6.144531 -8.507812 C 6.589844 -8.308594 6.953125 -8.039062 7.230469 -7.699219 C 7.496094 -7.375 7.695312 -6.992188 7.824219 -6.554688 C 7.957031 -6.113281 8.019531 -5.636719 8.019531 -5.121094 L 8.019531 -4.546875 L 2.351562 -4.546875 C 2.351562 -3.984375 2.40625 -3.476562 2.511719 -3.015625 C 2.621094 -2.558594 2.789062 -2.15625 3.019531 -1.808594 C 3.246094 -1.472656 3.542969 -1.207031 3.90625 -1.011719 C 4.269531 -0.816406 4.703125 -0.71875 5.207031 -0.71875 C 5.722656 -0.71875 6.167969 -0.839844 6.539062 -1.082031 C 6.914062 -1.324219 7.273438 -1.757812 7.621094 -2.386719 L 8.230469 -2.015625 M 6.3125 -5.277344 C 6.3125 -5.601562 6.28125 -5.945312 6.226562 -6.316406 C 6.171875 -6.683594 6.085938 -6.992188 5.964844 -7.242188 C 5.832031 -7.507812 5.648438 -7.722656 5.417969 -7.890625 C 5.183594 -8.058594 4.886719 -8.140625 4.523438 -8.140625 C 3.914062 -8.140625 3.410156 -7.890625 3.007812 -7.386719 C 2.605469 -6.878906 2.386719 -6.175781 2.351562 -5.277344 Z "/>
</g>
</g>
</defs>
<g fill="rgb(100%, 100%, 100%)" fill-opacity="1">
<use xlink:href="#glyph-0-0" x="30" y="36.301758"/>
<use xlink:href="#glyph-0-1" x="42" y="36.301758"/>
<use xlink:href="#glyph-0-2" x="52" y="36.301758"/>
<use xlink:href="#glyph-0-3" x="60" y="36.301758"/>
<use xlink:href="#glyph-0-4" x="66" y="36.301758"/>
<use xlink:href="#glyph-0-5" x="73" y="36.301758"/>
<use xlink:href="#glyph-0-6" x="82" y="36.301758"/>
<use xlink:href="#glyph-0-3" x="90" y="36.301758"/>
<use xlink:href="#glyph-0-7" x="96" y="36.301758"/>
<use xlink:href="#glyph-0-0" x="100" y="36.301758"/>
<use xlink:href="#glyph-0-8" x="112" y="36.301758"/>
<use xlink:href="#glyph-0-9" x="117" y="36.301758"/>
<use xlink:href="#glyph-0-10" x="126" y="36.301758"/>
<use xlink:href="#glyph-0-1" x="135" y="36.301758"/>
<use xlink:href="#glyph-0-4" x="145" y="36.301758"/>
<use xlink:href="#glyph-0-5" x="152" y="36.301758"/>
</g>
</svg>
